<?xml version="1.0" encoding="UTF-8"?>
<svg width="169px" height="85px" viewBox="0 0 169 85" xmlns="http://www.w3.org/2000/svg" xmlns:xlink="http://www.w3.org/1999/xlink" version="1.1">
 <!-- Generated by Pixelmator Pro 1.5.1 -->
 <path id="Path" d="M20.905 10.988 C20.905 16.648 16.509 20.984 10.849 20.984 5.189 20.984 0.853 16.648 0.853 10.988 0.853 5.328 5.188 0.872 10.849 0.872 16.51 0.872 20.905 5.328 20.905 10.988 Z" fill="#ff5b03" fill-opacity="1" stroke="none"/>
 <path id="Path-1" d="M106.368 47.335 L111.868 47.335 128.421 26.409 147.392 26.409 124.275 54.019 147.458 84.91 128.427 84.91 111.626 61.305 106.366 61.305 106.366 84.91 90.312 84.91 90.312 4.081 106.366 4.081 106.366 47.335 Z M152.539 4.081 L152.539 84.91 168.563 84.91 168.563 4.081 Z M54.174 25.258 C37.916 25.258 27.155 36.955 27.155 52.511 L27.155 84.911 43.062 84.911 43.062 52.394 C42.945 45.727 47.273 40.464 54.174 40.464 60.958 40.464 66.221 45.61 66.221 52.745 L66.221 84.91 82.128 84.91 82.128 52.51 C82.129 36.72 70.666 25.258 54.174 25.258 Z M2.945 84.91 L18.969 84.91 18.969 26.427 2.945 26.427 Z" fill="#141e28" fill-opacity="1" stroke="none"/>
</svg>
