<svg xmlns="http://www.w3.org/2000/svg" width="364.69" height="50.338" viewBox="0 0 364.69 50.338">
  <g id="Group_524" data-name="Group 524" transform="translate(0 -11)">
    <g id="heading_morning_edition" data-name="heading morning edition" transform="translate(0 11)">
      <path id="Path-2" d="M0,23.16c0-6.978,4.772-12.221,12.064-12.221a11.625,11.625,0,0,1,8.867,3.619,11.149,11.149,0,0,1,8.656-3.619c7.4,0,12.378,5.14,12.378,12.221V37.691H34.829V23.263a5.2,5.2,0,0,0-5.247-5.507,4.986,4.986,0,0,0-5.036,5.35V37.691H17.41V23.263a5.283,5.283,0,0,0-5.35-5.507c-3.041,0-4.983,2.359-4.929,5.35V37.691H0V23.16Zm44.849,1.417A13.585,13.585,0,1,1,58.433,38.215,13.567,13.567,0,0,1,44.849,24.577Zm20.2,0a6.588,6.588,0,1,0-13.168,0,6.588,6.588,0,1,0,13.168,0Zm9.862-13.114h7.135v4.3c1.31-2.727,3.673-4.3,7.239-4.3h2.884v6.978H87.6c-3.83,0-5.507,1.991-5.507,6.871V37.691H74.906Zm19.043,11.7c0-6.978,4.826-12.221,12.118-12.221s12.54,5.14,12.54,12.221V37.691h-7.135V23.263a5.324,5.324,0,0,0-5.4-5.507,4.945,4.945,0,0,0-4.983,5.35V37.691H93.949V23.16Zm39.184,0c0-6.978,4.826-12.221,12.118-12.221s12.535,5.14,12.535,12.221V37.691h-7.135V23.263a5.324,5.324,0,0,0-5.4-5.507,4.945,4.945,0,0,0-4.983,5.35V37.691h-7.135V23.16Zm27.542,1.417c0-9.284,6.821-13.638,12.746-13.638a10.281,10.281,0,0,1,7.817,3.359V11.463h7.185v25.5c0,7.4-4.669,13.378-13.535,13.378-6.665,0-11.54-3.462-13.638-7.553l6.346-3.565a7.7,7.7,0,0,0,7.292,4.458,6.258,6.258,0,0,0,6.346-6.454V34.758a10.226,10.226,0,0,1-7.92,3.462c-5.561,0-12.643-4.409-12.643-13.638Zm20.774-.054a6.769,6.769,0,0,0-6.714-7.028,6.932,6.932,0,0,0-7.028,7.028,6.912,6.912,0,0,0,7.028,7.082C178.721,31.6,181.448,28.4,181.448,24.523Zm51.168.054c0-9.284,6.822-13.638,12.746-13.638a10.521,10.521,0,0,1,7.817,3.095V1.386h7.185v36.3h-7.185V34.753a10.226,10.226,0,0,1-7.92,3.462C239.7,38.215,232.616,33.807,232.616,24.577Zm20.774-.054a6.769,6.769,0,0,0-6.714-7.028,6.932,6.932,0,0,0-7.028,7.028,6.912,6.912,0,0,0,7.028,7.082C250.663,31.6,253.39,28.4,253.39,24.523Zm56.585.054A13.585,13.585,0,1,1,323.56,38.215a13.567,13.567,0,0,1-13.585-13.638Zm20.2,0a6.588,6.588,0,1,0-13.167,0,6.588,6.588,0,1,0,13.167,0Zm9.862-1.417c0-6.978,4.826-12.221,12.118-12.221s12.54,5.14,12.54,12.221V37.691h-7.135V23.263a5.324,5.324,0,0,0-5.4-5.507,4.945,4.945,0,0,0-4.983,5.35V37.691h-7.135V23.16h0ZM125.818,0a4.454,4.454,0,0,0-4.485,4.539,4.5,4.5,0,0,0,9,0A4.476,4.476,0,0,0,125.818,0Zm-3.543,37.691h7.185V11.463h-7.185ZM267.974,0a4.454,4.454,0,0,0-4.485,4.539,4.5,4.5,0,0,0,9,0A4.473,4.473,0,0,0,267.974,0Zm-3.543,37.691h7.185V11.463h-7.185ZM303.445,0a4.454,4.454,0,0,0-4.485,4.539,4.5,4.5,0,0,0,9,0A4.476,4.476,0,0,0,303.445,0ZM299.9,37.691h7.185V11.463H299.9Zm-4.05-26.227h-9.445V1.516h-7.023v9.947h-5.032v6.243h5.032V27.8c0,6.754,3.31,10.414,9.768,10.414a14.553,14.553,0,0,0,8.638-2.745l-2.583-5.489a10.194,10.194,0,0,1-4.9,1.7c-2.18,0-3.9-1.184-3.9-4.44V17.706h9.445V11.463h0Zm-67.129,20.9a14.1,14.1,0,0,1-25.537-7.889,13.714,13.714,0,0,1,13.742-13.742A13.288,13.288,0,0,1,230.562,24.42v2.368H210.093c.022.09.045.188.072.274.848,2.906,3.225,4.808,7.028,4.808a7.012,7.012,0,0,0,5.458-2.48l6.068,2.969Zm-5.35-10.826c-.87-2.718-2.947-4.453-6.391-4.462a7,7,0,0,0-6.629,4.462Z" transform="translate(0 0)" fill="#fff"/>
    </g>
  </g>
</svg>
